<svg width="91" height="91" viewBox="0 0 91 91" fill="none" xmlns="http://www.w3.org/2000/svg">
<path d="M11 58.4692H22.8021C28.0488 58.4692 32.3021 62.7224 32.3021 67.9692V80C32.3021 85.799 37.0031 90.5 42.8021 90.5H47.9692C53.7681 90.5 58.4691 85.799 58.4691 80V67.9692C58.4691 62.7225 62.7224 58.4692 67.9691 58.4692H80C85.799 58.4692 90.5 53.7681 90.5 47.9692V43.2596C90.5 37.4606 85.799 32.7596 80 32.7596H67.9691C62.7224 32.7596 58.4691 28.5064 58.4691 23.2596V11C58.4691 5.20101 53.7681 0.5 47.9691 0.5H42.802C37.0031 0.5 32.3021 5.20101 32.3021 11V23.2596C32.3021 28.5064 28.0488 32.7596 22.8021 32.7596H11C5.20101 32.7596 0.5 37.4607 0.5 43.2596V47.9692C0.5 53.7682 5.20101 58.4692 11 58.4692Z" fill="url(#paint0_linear_5_1763)" stroke="white"/>
<defs>
<linearGradient id="paint0_linear_5_1763" x1="45.5" y1="1" x2="45.5" y2="90" gradientUnits="userSpaceOnUse">
<stop offset="0.39857" stop-color="white"/>
<stop offset="1" stop-color="#F7F5EF" stop-opacity="0"/>
</linearGradient>
</defs>
</svg>
