<svg width="21" height="21" viewBox="0 0 21 21" fill="none" xmlns="http://www.w3.org/2000/svg">
<path d="M2.70235 19.4141C3.76069 20.4724 5.4766 20.4724 6.53494 19.4141L8.91618 17.0328C9.77926 16.1698 11.1786 16.1698 12.0417 17.0328L14.4651 19.4562C15.5234 20.5146 17.2393 20.5146 18.2977 19.4562L19.4562 18.2977C20.5146 17.2393 20.5146 15.5234 19.4562 14.4651L17.0328 12.0417C16.1698 11.1786 16.1698 9.77926 17.0328 8.91618L19.4562 6.49278C20.5146 5.43444 20.5146 3.71853 19.4562 2.66019L18.382 1.58592C17.3236 0.527575 15.6077 0.527575 14.5494 1.58592L12.126 4.00932C11.2629 4.8724 9.86358 4.8724 9.0005 4.00932L6.53494 1.54376C5.4766 0.485415 3.76069 0.485414 2.70235 1.54375L1.54376 2.70235C0.485415 3.76069 0.485415 5.4766 1.54376 6.53494L4.00932 9.0005C4.87239 9.86358 4.8724 11.2629 4.00932 12.126L1.62808 14.5072C0.569737 15.5656 0.569736 17.2815 1.62808 18.3398L2.70235 19.4141Z" fill="white" fill-opacity="0.56" stroke="#DADADA" stroke-width="0.5"/>
</svg>
