<svg width="20" height="20" viewBox="0 0 20 20" fill="none" xmlns="http://www.w3.org/2000/svg">
<path d="M10.0001 0C10.3946 0 10.7144 0.31979 10.7144 0.714272V2.14282C10.7144 2.5373 10.3946 2.85709 10.0001 2.85709C9.6056 2.85709 9.28581 2.5373 9.28581 2.14282V0.714272C9.28581 0.31979 9.6056 0 10.0001 0ZM15 9.99981C15 12.7612 12.7615 14.9997 10.0001 14.9997C7.23869 14.9997 5.00013 12.7612 5.00013 9.99981C5.00013 7.23844 7.23869 4.9999 10.0001 4.9999C12.7615 4.9999 15 7.23844 15 9.99981ZM19.2857 10.7141C19.6802 10.7141 20 10.3943 20 9.99981C20 9.60533 19.6802 9.28554 19.2857 9.28554H17.8572C17.4627 9.28554 17.1429 9.60533 17.1429 9.99981C17.1429 10.3943 17.4627 10.7141 17.8572 10.7141H19.2857ZM10.0001 17.1425C10.3946 17.1425 10.7144 17.4623 10.7144 17.8568V19.2857C10.7144 19.6802 10.3946 20 10.0001 20C9.6056 20 9.28581 19.6802 9.28581 19.2857V17.8568C9.28581 17.4623 9.6056 17.1425 10.0001 17.1425ZM2.14302 10.7141C2.5375 10.7141 2.8573 10.3943 2.8573 9.99981C2.8573 9.60533 2.5375 9.28554 2.14302 9.28554H0.714279C0.319794 9.28554 0 9.60533 0 9.99981C0 10.3943 0.319794 10.7141 0.714279 10.7141H2.14302ZM2.35292 2.35259C2.63187 2.07364 3.08412 2.07364 3.36307 2.35259L4.79162 3.78113C5.07057 4.06007 5.07057 4.51232 4.79162 4.79126C4.51268 5.0702 4.06042 5.0702 3.78148 4.79126L2.35292 3.36272C2.07398 3.08378 2.07398 2.63153 2.35292 2.35259ZM3.36307 17.6482C3.08412 17.9272 2.63187 17.9272 2.35292 17.6482C2.07398 17.3693 2.07398 16.917 2.35292 16.6381L3.78148 15.2095C4.06042 14.9306 4.51268 14.9306 4.79162 15.2095C5.07057 15.4885 5.07057 15.9407 4.79162 16.2197L3.36307 17.6482ZM17.6487 2.35259C17.3697 2.07364 16.9175 2.07364 16.6385 2.35259L15.2099 3.78113C14.931 4.06007 14.931 4.51232 15.2099 4.79126C15.4889 5.0702 15.9411 5.0702 16.2201 4.79126L17.6487 3.36272C17.9276 3.08378 17.9276 2.63153 17.6487 2.35259ZM16.6385 17.6482C16.9175 17.9272 17.3697 17.9272 17.6487 17.6482C17.9276 17.3693 17.9276 16.917 17.6487 16.6381L16.2201 15.2095C15.9411 14.9306 15.4889 14.9306 15.2099 15.2095C14.931 15.4885 14.931 15.9407 15.2099 16.2197L16.6385 17.6482Z" fill="#716501"/>
</svg>
