<svg width="16" height="16" viewBox="0 0 16 16" fill="none" xmlns="http://www.w3.org/2000/svg">
<path d="M7.59274 0.622586C7.55091 0.466086 7.59201 0.300261 7.70316 0.177136C7.81432 0.054011 7.9819 -0.0113281 8.15333 0.00161731C12.5459 0.333311 16 3.78187 16 7.98776C16 12.4128 12.1762 16 7.45926 16C4.30513 16 1.55102 14.3958 0.0724272 12.012C-0.0121662 11.8756 -0.0232938 11.7098 0.0423977 11.5646C0.108089 11.4193 0.242915 11.3116 0.406237 11.2739C1.54412 11.0112 2.93248 10.5905 4.19227 9.93565C5.45467 9.27949 6.5488 8.40885 7.1596 7.26302C8.37928 4.97499 8.05699 2.3591 7.59274 0.622586Z" fill="#66546C"/>
</svg>
