<svg width="13" height="14" viewBox="0 0 13 14" fill="none" xmlns="http://www.w3.org/2000/svg">
<g clip-path="url(#clip0_126_946)">
<path d="M9.20925 0.98999L7.98034 2.2189L11.2811 5.51968L12.51 4.29077C13.1448 3.65601 13.1448 2.62769 12.51 1.99292L11.5096 0.98999C10.8749 0.355225 9.84655 0.355225 9.21179 0.98999H9.20925ZM7.40651 2.79272L1.48796 8.71382C1.2239 8.97788 1.03093 9.30542 0.924287 9.66343L0.0254588 12.7179C-0.0380178 12.9337 0.0203807 13.1648 0.177803 13.3222C0.335224 13.4796 0.566279 13.538 0.77956 13.4771L3.83405 12.5783C4.19206 12.4716 4.5196 12.2787 4.78366 12.0146L10.7073 6.09351L7.40651 2.79272Z" fill="#595959"/>
</g>
<defs>
<clipPath id="clip0_126_946">
<rect width="13" height="13" fill="white" transform="translate(0 0.5)"/>
</clipPath>
</defs>
</svg>
