<svg width="16" height="16" viewBox="0 0 16 16" fill="none" xmlns="http://www.w3.org/2000/svg">
<path d="M7.99999 0.911743C6.99614 0.911743 6.18235 1.72553 6.18235 2.72939V6.18233H2.72941C1.72555 6.18233 0.911758 6.99612 0.911758 7.99998C0.911758 9.00384 1.72555 9.81763 2.72941 9.81763H6.18235V13.2706C6.18235 14.2744 6.99614 15.0882 7.99999 15.0882C9.00385 15.0882 9.81764 14.2744 9.81764 13.2706V9.81763H13.2706C14.2744 9.81763 15.0882 9.00384 15.0882 7.99998C15.0882 6.99612 14.2744 6.18233 13.2706 6.18233H9.81764V2.72939C9.81764 1.72553 9.00385 0.911743 7.99999 0.911743Z" fill="white" stroke="#D5D2B7"/>
</svg>
