<svg width="10" height="10" viewBox="0 0 10 10" fill="none" xmlns="http://www.w3.org/2000/svg">
<path d="M9.83731 0.162692C9.62039 -0.0542305 9.26869 -0.0542307 9.05176 0.162692L5 4.21446L0.948237 0.162693C0.731314 -0.0542297 0.379614 -0.0542297 0.162692 0.162693C-0.0542304 0.379615 -0.0542307 0.731316 0.162692 0.948238L4.21445 5.00001L0.162703 9.05176C-0.054219 9.26868 -0.054219 9.62039 0.162703 9.83731C0.379626 10.0542 0.731326 10.0542 0.948248 9.83731L5 5.78555L9.05175 9.83731C9.26867 10.0542 9.62038 10.0542 9.8373 9.83731C10.0542 9.62039 10.0542 9.26869 9.8373 9.05176L5.78554 5.00001L9.83731 0.948238C10.0542 0.731315 10.0542 0.379614 9.83731 0.162692Z" fill="#E9E4DC"/>
</svg>
