<svg width="13" height="16" viewBox="0 0 13 16" fill="none" xmlns="http://www.w3.org/2000/svg">
<path d="M3.92321 0.750188L3.71429 1.83481H0.928571C0.414955 1.83481 0 2.24976 0 2.76338C0 3.27699 0.414955 3.69195 0.928571 3.69195H12.0714C12.585 3.69195 13 3.27699 13 2.76338C13 2.24976 12.585 1.83481 12.0714 1.83481H9.28571L9.07679 0.750188C8.92009 0.433894 8.59799 0.236572 8.24687 0.236572H4.75313C4.40201 0.236572 4.07991 0.433894 3.92321 0.750188ZM12.0714 4.62052H0.928571L1.54375 14.4576C1.59018 15.1917 2.19955 15.7634 2.93371 15.7634H10.0663C10.8004 15.7634 11.4098 15.1917 11.4562 14.4576L12.0714 4.62052Z" fill="#595959"/>
</svg>
