<svg width="62" height="62" viewBox="0 0 62 62" fill="currentColor" xmlns="http://www.w3.org/2000/svg">
<path d="M33.5027 18.6205C41.4235 18.6205 45.9169 23.9322 46.5704 30.3469L46.7703 30.3469C51.8677 30.3469 56 34.5226 56 39.6735C56 44.8244 51.8677 49 46.7703 49H20.235C15.1376 49 11.0053 44.8244 11.0053 39.6735C11.0053 34.5226 15.1376 30.3469 20.2351 30.3469L20.4349 30.3469C21.0922 23.89 25.5818 18.6205 33.5027 18.6205ZM25.9989 11C30.0409 11 33.6221 13.0649 35.7492 16.2231C35.0215 16.1332 34.2707 16.0878 33.4984 16.0878C25.9017 16.0878 20.404 20.4414 18.5491 26.9968L18.4498 27.3632L18.3052 27.9654L17.7887 28.0628C13.7687 28.9162 10.4994 31.8626 9.15747 35.736C7.23628 34.217 6 31.8463 6 29.1831C6 24.5923 9.67335 20.8708 14.2047 20.8708L14.3824 20.8708C15.3553 15.245 20.2035 11 25.9989 11Z" fill="#D5D2B7"/>
<path d="M28.3296 55.0508C28.6987 54.4003 28.485 53.5654 27.8522 53.186C27.2194 52.8065 26.4071 53.0262 26.038 53.6767L24.1809 56.9492C23.8118 57.5997 24.0255 58.4346 24.6583 58.814C25.2911 59.1935 26.1034 58.9738 26.4725 58.3233L28.3296 55.0508Z" fill="#D5D2B7"/>
<path d="M36.3417 53.186C36.9745 53.5654 37.1882 54.4003 36.8191 55.0508L34.962 58.3233C34.5929 58.9738 33.7806 59.1935 33.1478 58.814C32.515 58.4346 32.3013 57.5997 32.6704 56.9492L34.5275 53.6767C34.8966 53.0262 35.7089 52.8065 36.3417 53.186Z" fill="#D5D2B7"/>
<path d="M26.3296 49.0508C26.6987 48.4003 26.485 47.5654 25.8522 47.186C25.2194 46.8065 24.4071 47.0262 24.038 47.6767L22.1809 50.9492C21.8118 51.5997 22.0255 52.4346 22.6583 52.814C23.2911 53.1935 24.1034 52.9738 24.4725 52.3233L26.3296 49.0508Z" fill="#D5D2B7"/>
<path d="M34.3417 47.186C34.9745 47.5654 35.1882 48.4003 34.8191 49.0508L32.962 52.3233C32.5929 52.9738 31.7806 53.1935 31.1478 52.814C30.515 52.4346 30.3013 51.5997 30.6704 50.9492L32.5275 47.6767C32.8966 47.0262 33.7089 46.8065 34.3417 47.186Z" fill="#D5D2B7"/>
<path d="M43.7995 49.0508C44.2087 48.4003 43.9717 47.5654 43.2702 47.186C42.5687 46.8065 41.6684 47.0262 41.2592 47.6767L39.2005 50.9492C38.7913 51.5997 39.0283 52.4346 39.7298 52.814C40.4313 53.1935 41.3316 52.9738 41.7408 52.3233L43.7995 49.0508Z" fill="#D5D2B7"/>
</svg>
