<svg width="62" height="62" viewBox="0 0 62 62" fill="currentColor" xmlns="http://www.w3.org/2000/svg">
<path d="M31 9C39.4499 9 44.2434 14.7679 44.9406 21.7336L45.1538 21.7336C50.5917 21.7336 55 26.2678 55 31.8611C55 37.4544 50.5917 41.9886 45.1538 41.9886L45.065 41.9882L39.3325 51.8323C38.6689 52.9716 37.2354 53.3404 36.1306 52.6561C35.0872 52.0099 34.7102 50.6553 35.2305 49.5471L35.3317 49.3542L39.6207 41.9882H34.3977L28.6652 51.8323C28.0016 52.9716 26.5681 53.3404 25.4633 52.6561C24.4199 52.0099 24.0429 50.6553 24.5632 49.5471L24.6644 49.3542L28.9534 41.9882H23.7304L17.9978 51.8323C17.3343 52.9716 15.9008 53.3404 14.796 52.6561C13.7526 52.0099 13.3756 50.6553 13.8959 49.5471L13.9971 49.3542L18.286 41.9882L16.8462 41.9886C11.4083 41.9886 7 37.4544 7 31.8611C7 26.2678 11.4083 21.7336 16.8462 21.7336L17.0594 21.7336C17.7606 14.7221 22.5501 9 31 9Z" fill="#D5D2B7"/>
</svg>
