<svg width="62" height="62" viewBox="0 0 62 62" fill="currentColor" xmlns="http://www.w3.org/2000/svg">
<path d="M11 17.625C10.3096 17.625 9.75 17.0654 9.75 16.375C9.75 15.6846 10.3096 15.125 11 15.125C11.6904 15.125 12.25 15.6846 12.25 16.375C12.25 17.0654 11.6904 17.625 11 17.625ZM11 20.75C13.4162 20.75 15.375 18.7912 15.375 16.375C15.375 13.9588 13.4162 12 11 12C8.58375 12 6.625 13.9588 6.625 16.375C6.625 18.7912 8.58375 20.75 11 20.75ZM29.7485 12.625C24.3718 12.625 19.9577 16.8833 19.7512 22.2524C19.718 23.1148 20.3901 23.8407 21.2524 23.8738C22.1148 23.907 22.8407 23.2349 22.8738 22.3726C23.016 18.6778 26.0545 15.75 29.7485 15.75C33.5458 15.75 36.625 18.8284 36.625 22.625C36.625 26.422 33.547 29.5 29.75 29.5H7.5625C6.69956 29.5 6 30.1996 6 31.0625C6 31.9254 6.69956 32.625 7.5625 32.625H29.75C35.2728 32.625 39.75 28.1478 39.75 22.625C39.75 17.1018 35.271 12.625 29.7485 12.625ZM48.4837 27C45.0329 27 42.0057 29.3474 41.1668 32.7029L41.0467 33.1835C40.8374 34.0207 41.3464 34.8691 42.1835 35.0783C43.0207 35.2876 43.869 34.7786 44.0783 33.9415L44.1985 33.4609C44.6877 31.5042 46.4589 30.125 48.4837 30.125C50.9056 30.125 52.875 32.0893 52.875 34.5C52.875 36.9162 50.9162 38.875 48.5 38.875H7.5625C6.69956 38.875 6 39.5746 6 40.4375C6 41.3004 6.69956 42 7.5625 42H38.5C40.5523 42 42.25 43.7095 42.25 45.7994C42.25 47.8353 40.5961 49.5 38.5978 49.5C37.2145 49.5 35.9499 48.7184 35.3312 47.4811L35.21 47.2387C34.8241 46.4669 33.8856 46.154 33.1137 46.54C32.3419 46.9259 32.029 47.8644 32.415 48.6363L32.5362 48.8787C33.6842 51.1747 36.0308 52.625 38.5978 52.625C42.3595 52.625 45.375 49.5234 45.375 45.7994C45.375 44.4046 44.9581 43.096 44.2401 42H48.5C52.6421 42 56 38.6421 56 34.5C56 30.3523 52.6203 27 48.4837 27ZM24.75 52.625C24.75 51.9346 24.1904 51.375 23.5 51.375C22.8096 51.375 22.25 51.9346 22.25 52.625C22.25 53.3154 22.8096 53.875 23.5 53.875C24.1904 53.875 24.75 53.3154 24.75 52.625ZM27.875 52.625C27.875 55.0412 25.9162 57 23.5 57C21.0838 57 19.125 55.0412 19.125 52.625C19.125 50.2088 21.0838 48.25 23.5 48.25C25.9162 48.25 27.875 50.2088 27.875 52.625ZM51 18.875C51 18.1846 50.4404 17.625 49.75 17.625C49.0596 17.625 48.5 18.1846 48.5 18.875C48.5 19.5654 49.0596 20.125 49.75 20.125C50.4404 20.125 51 19.5654 51 18.875ZM54.125 18.875C54.125 21.2912 52.1662 23.25 49.75 23.25C47.3338 23.25 45.375 21.2912 45.375 18.875C45.375 16.4588 47.3338 14.5 49.75 14.5C52.1662 14.5 54.125 16.4588 54.125 18.875Z" fill="#D5D2B7"/>
</svg>
