<svg width="62" height="62" viewBox="0 0 62 62" fill="none" xmlns="http://www.w3.org/2000/svg">
<path d="M32.9526 19.6205C40.7151 19.6205 45.1186 24.9322 45.759 31.3469L45.9549 31.3469C50.9504 31.3469 55 35.5226 55 40.6735C55 45.8244 50.9504 50 45.9549 50H19.9503C14.9548 50 10.9052 45.8244 10.9052 40.6735C10.9052 35.5226 14.9548 31.3469 19.9504 31.3469L20.1462 31.3469C20.7904 24.89 25.1901 19.6205 32.9526 19.6205ZM25.5989 12C29.5601 12 33.0697 14.0649 35.1542 17.2231C34.4411 17.1332 33.7053 17.0878 32.9485 17.0878C25.5037 17.0878 20.1159 21.4414 18.2981 27.9968L18.2008 28.3632L18.0591 28.9654L17.553 29.0628C13.6133 29.9162 10.4094 32.8626 9.09432 36.736C7.21155 35.217 6 32.8463 6 30.1831C6 25.5923 9.59988 21.8708 14.0406 21.8708L14.2147 21.8708C15.1682 16.245 19.9194 12 25.5989 12Z" fill="#D5D2B7"/>
</svg>
