<svg width="62" height="61" viewBox="0 0 62 61" fill="none" xmlns="http://www.w3.org/2000/svg">
<path d="M35.0304 36.784C35.8784 37.4803 36.0438 38.7041 35.4412 39.5975L35.3268 39.7516L32.7305 42.9395L38.4973 42.9401C40.2205 42.9401 41.1869 44.8937 40.2139 46.2646L40.1101 46.3997L31.1088 57.2416C30.3661 58.1361 29.042 58.2567 28.1513 57.5107C27.31 56.8063 27.1563 55.5809 27.7675 54.6933L27.8833 54.5404L34.0108 47.1574L28.3015 47.158C26.5874 47.158 25.6185 45.2224 26.5739 43.8494L26.6759 43.7141L32.0756 37.0817C32.8097 36.18 34.1326 36.0467 35.0304 36.784ZM33.4026 18.2522C41.0066 18.2522 45.3202 23.3072 45.9476 29.412L46.1395 29.412C51.033 29.412 55 33.3858 55 38.2878C55 43.1898 51.033 47.1636 46.1395 47.1636L42.4641 47.1636C44.0046 44.228 41.9671 40.5298 38.4973 40.5298L37.6646 40.5292L37.7443 40.3708C38.633 38.4719 38.1622 36.2424 36.5495 34.9181C34.6256 33.3382 31.7908 33.6238 30.2177 35.556L24.818 42.1884L24.6604 42.3947L24.538 42.5791C23.5899 44.0773 23.6257 45.8026 24.3362 47.1642L20.6656 47.1636C15.7721 47.1636 11.8051 43.1898 11.8051 38.2878C11.8051 33.4839 15.615 29.5713 20.3732 29.4167L20.8575 29.412C21.4885 23.2671 25.7985 18.2522 33.4026 18.2522ZM26.1989 11C30.0688 11 33.4986 12.9545 35.5427 15.9463C34.8491 15.863 34.134 15.8205 33.3985 15.8205C26.1056 15.8205 20.8278 19.9663 19.0471 26.2089L18.9518 26.5578L18.813 27.1313L18.3172 27.224C14.4554 28.0372 11.3153 30.8462 10.0286 34.5383C8.18527 33.0921 7 30.8373 7 28.3044C7 23.9355 10.5264 20.3938 14.8765 20.3938L15.0471 20.3938C15.9811 15.0398 20.6353 11 26.1989 11Z" fill="#D4D2B7"/>
</svg>
