<svg width="62" height="62" viewBox="0 0 62 62" fill="currentColor" xmlns="http://www.w3.org/2000/svg">
<path d="M32.9032 1.9375C32.9032 0.867448 32.0336 0 30.9609 0C29.8882 0 29.0185 0.867447 29.0185 1.9375V4.2625C29.0185 5.33255 29.8882 6.2 30.9609 6.2C32.0336 6.2 32.9032 5.33255 32.9032 4.2625V1.9375ZM30.9609 9.29999C24.0955 9.29999 18.5299 14.8517 18.5299 21.7C18.5299 28.5483 24.0955 34.1 30.9609 34.1C37.8263 34.1 43.3918 28.5483 43.3918 21.7C43.3918 14.8517 37.8263 9.29999 30.9609 9.29999ZM0.334349 61.3037C1.02129 62.125 2.24539 62.2356 3.06906 61.551L3.08386 61.5389C3.09914 61.5266 3.12506 61.5057 3.16147 61.4769C3.23431 61.4194 3.34912 61.3303 3.50481 61.214C3.81626 60.9815 4.2909 60.6409 4.92013 60.2278C6.17922 59.4013 8.05316 58.2878 10.4735 57.1709C15.3156 54.9367 22.3206 52.7 30.9608 52.7C39.601 52.7 46.606 54.9367 51.448 57.1709C53.8684 58.2878 55.7423 59.4013 57.0014 60.2278C57.6306 60.6409 58.1053 60.9815 58.4167 61.214C58.5724 61.3303 58.6872 61.4194 58.7601 61.4769C58.7965 61.5057 58.8224 61.5266 58.8377 61.5389L58.8514 61.5502C59.6751 62.2347 60.9002 62.125 61.5872 61.3037C62.6437 59.9362 61.3388 58.5737 61.3388 58.5737L61.3334 58.5692L61.2887 58.5326L61.2283 58.484L61.1717 58.4391C61.0721 58.3604 60.9293 58.2497 60.7443 58.1117C60.3745 57.8356 59.8358 57.4497 59.1368 56.9908C57.7394 56.0736 55.6972 54.8621 53.0789 53.654C47.8436 51.2382 40.2811 48.825 30.9608 48.825C21.6405 48.825 14.078 51.2382 8.84261 53.654C6.22431 54.8621 4.18208 56.0736 2.7847 56.9908C2.08568 57.4497 1.54699 57.8356 1.17718 58.1117C0.992242 58.2497 0.849428 58.3604 0.749809 58.4391C0.699996 58.4784 0.660971 58.5098 0.632867 58.5326L0.598915 58.5603L0.588109 58.5692C-0.0786334 59.1214 -0.199735 60.6651 0.334349 61.3037ZM30.9609 37.2C32.0336 37.2 32.9032 38.0674 32.9032 39.1375V41.4625C32.9032 42.5325 32.0336 43.4 30.9609 43.4C29.8882 43.4 29.0185 42.5325 29.0185 41.4625V39.1375C29.0185 38.0674 29.8882 37.2 30.9609 37.2ZM9.20674 20.5375C9.20674 19.4674 10.0763 18.6 11.1491 18.6H13.4799C14.5526 18.6 15.4222 19.4674 15.4222 20.5375C15.4222 21.6075 14.5526 22.475 13.4799 22.475H11.1491C10.0763 22.475 9.20674 21.6075 9.20674 20.5375ZM48.4419 18.6C47.3692 18.6 46.4995 19.4674 46.4995 20.5375C46.4995 21.6075 47.3692 22.475 48.4419 22.475H50.7727C51.8454 22.475 52.715 21.6075 52.715 20.5375C52.715 19.4674 51.8454 18.6 50.7727 18.6H48.4419ZM17.961 11.8325C17.2025 12.5891 15.9727 12.5891 15.2142 11.8325L12.8834 9.5075C12.1248 8.75086 12.1248 7.52411 12.8834 6.76747C13.6419 6.01083 14.8717 6.01083 15.6302 6.76747L17.961 9.09246C18.7196 9.8491 18.7196 11.0759 17.961 11.8325ZM15.2142 31.5675C15.9727 30.8108 17.2025 30.8108 17.961 31.5675C18.7196 32.3241 18.7196 33.5509 17.961 34.3075L15.6302 36.6325C14.8717 37.3891 13.6419 37.3891 12.8834 36.6325C12.1248 35.8759 12.1248 34.6491 12.8834 33.8925L15.2142 31.5675ZM43.9607 11.8325C44.7192 12.5891 45.9491 12.5891 46.7076 11.8325L49.0384 9.5075C49.7969 8.75086 49.7969 7.52411 49.0384 6.76747C48.2799 6.01083 47.05 6.01083 46.2915 6.76747L43.9607 9.09246C43.2022 9.8491 43.2022 11.0759 43.9607 11.8325ZM46.7076 31.5675C45.949 30.8108 44.7192 30.8108 43.9607 31.5675C43.2022 32.3241 43.2022 33.5509 43.9607 34.3075L46.2915 36.6325C47.05 37.3891 48.2799 37.3891 49.0384 36.6325C49.7969 35.8759 49.7969 34.6491 49.0384 33.8925L46.7076 31.5675Z" fill="#D5D2B7"/>
</svg>
