<svg width="62" height="62" viewBox="0 0 62 62" fill="none" xmlns="http://www.w3.org/2000/svg">
<path d="M33.4842 21.3618C41.0595 21.3618 45.3568 26.5439 45.9818 32.8021L46.173 32.8021C51.048 32.8021 55 36.8758 55 41.9011C55 46.9263 51.048 51 46.173 51H20.7953C15.9203 51 11.9683 46.9263 11.9683 41.9011C11.9683 36.8758 15.9203 32.8021 20.7954 32.8021L20.9865 32.8021C21.6151 26.5027 25.9089 21.3618 33.4842 21.3618ZM11.4568 31.4831C12.0005 32.4563 11.7288 33.6848 10.8608 34.3237L10.6911 34.4364L9.13827 35.363C8.13771 35.96 6.85829 35.6057 6.28062 34.5716C5.73692 33.5984 6.00861 32.3699 6.87663 31.731L7.04632 31.6183L8.59919 30.6917C9.59975 30.0947 10.8792 30.449 11.4568 31.4831ZM28.3552 19.697C23.8111 21.2038 20.5746 24.7514 19.2457 29.4839L19.1335 29.9045L18.9955 30.4921L18.5028 30.5872C17.0477 30.9032 15.6957 31.5132 14.5081 32.3552C14.2969 31.9811 14.108 31.5878 13.9433 31.1766C11.9516 26.2074 14.2349 20.5104 19.0432 18.4521C22.2522 17.0783 25.7749 17.6725 28.3552 19.697ZM8.98964 18.8675L9.14807 18.9359L10.7732 19.7191C11.8203 20.2237 12.2733 21.51 11.785 22.5922C11.3212 23.6202 10.1747 24.0942 9.16341 23.7064L9.00498 23.6379L7.37988 22.8548C6.33278 22.3501 5.87976 21.0638 6.36803 19.9816C6.83189 18.9536 7.97839 18.4796 8.98964 18.8675ZM31.8345 11.7489C32.7336 12.3995 32.9861 13.6487 32.441 14.6106L32.3482 14.76L31.3198 16.278C30.6571 17.2561 29.3527 17.4938 28.4062 16.8089C27.5072 16.1583 27.2546 14.9091 27.7998 13.9472L27.8925 13.7979L28.921 12.2799C29.5837 11.3018 30.8881 11.0641 31.8345 11.7489ZM19.5316 11.2309L19.6095 11.4231L20.2228 13.1645C20.6179 14.2865 20.0582 15.5272 18.9725 15.9356C17.9507 16.3199 16.8272 15.8301 16.3691 14.8357L16.2912 14.6434L15.6779 12.902C15.2828 11.78 15.8426 10.5394 16.9282 10.131C17.9501 9.74661 19.0735 10.2365 19.5316 11.2309Z" fill="#D4D2B7"/>
</svg>
